<svg width="696" height="145" viewBox="0 0 696 145" fill="none" xmlns="http://www.w3.org/2000/svg">
<path d="M65.812 21.6427C67.8447 15.0649 77.1553 15.065 79.188 21.6427L88.0904 50.4518C88.9968 53.3848 91.7085 55.3851 94.7784 55.3851H124.306C131.002 55.3851 133.876 63.8829 128.555 67.9477L104.073 86.6508C101.741 88.4317 100.768 91.4772 101.634 94.2801L110.842 124.076C112.854 130.587 105.32 135.842 99.9041 131.705L76.7494 114.016C74.2406 112.1 70.7594 112.1 68.2506 114.016L45.0959 131.705C39.68 135.842 32.1463 130.587 34.1585 124.076L43.3659 94.28C44.232 91.4772 43.2585 88.4317 40.9273 86.6508L16.4446 67.9477C11.1238 63.8829 13.9983 55.3851 20.6941 55.3851H50.2216C53.2915 55.3851 56.0032 53.3848 56.9095 50.4518L65.812 21.6427Z" fill="#6E1CA0"/>
<path d="M616.812 21.6427C618.845 15.0649 628.155 15.065 630.188 21.6427L639.09 50.4518C639.997 53.3848 642.708 55.3851 645.778 55.3851H675.306C682.002 55.3851 684.876 63.8829 679.555 67.9477L655.073 86.6508C652.741 88.4317 651.768 91.4772 652.634 94.2801L661.842 124.076C663.854 130.587 656.32 135.842 650.904 131.705L627.749 114.016C625.241 112.1 621.759 112.1 619.251 114.016L596.096 131.705C590.68 135.842 583.146 130.587 585.158 124.076L594.366 94.28C595.232 91.4772 594.259 88.4317 591.927 86.6508L567.445 67.9477C562.124 63.8829 564.998 55.3851 571.694 55.3851H601.222C604.291 55.3851 607.003 53.3848 607.91 50.4518L616.812 21.6427Z" fill="#D9D9D9"/>
<path d="M481.812 21.6427C483.845 15.0649 493.155 15.065 495.188 21.6427L504.09 50.4518C504.997 53.3848 507.708 55.3851 510.778 55.3851H540.306C547.002 55.3851 549.876 63.8829 544.555 67.9477L520.073 86.6508C517.741 88.4317 516.768 91.4772 517.634 94.2801L526.842 124.076C528.854 130.587 521.32 135.842 515.904 131.705L492.749 114.016C490.241 112.1 486.759 112.1 484.251 114.016L461.096 131.705C455.68 135.842 448.146 130.587 450.158 124.076L459.366 94.28C460.232 91.4772 459.259 88.4317 456.927 86.6508L432.445 67.9477C427.124 63.8829 429.998 55.3851 436.694 55.3851H466.222C469.291 55.3851 472.003 53.3848 472.91 50.4518L481.812 21.6427Z" fill="#D9D9D9"/>
<path d="M334.812 21.6427C336.845 15.0649 346.155 15.065 348.188 21.6427L357.09 50.4518C357.997 53.3848 360.708 55.3851 363.778 55.3851H393.306C400.002 55.3851 402.876 63.8829 397.555 67.9477L373.073 86.6508C370.741 88.4317 369.768 91.4772 370.634 94.2801L379.842 124.076C381.854 130.587 374.32 135.842 368.904 131.705L345.749 114.016C343.241 112.1 339.759 112.1 337.251 114.016L314.096 131.705C308.68 135.842 301.146 130.587 303.158 124.076L312.366 94.28C313.232 91.4772 312.259 88.4317 309.927 86.6508L285.445 67.9477C280.124 63.8829 282.998 55.3851 289.694 55.3851H319.222C322.291 55.3851 325.003 53.3848 325.91 50.4518L334.812 21.6427Z" fill="#6E1CA0"/>
<path d="M199.812 21.6427C201.845 15.0649 211.155 15.065 213.188 21.6427L222.09 50.4518C222.997 53.3848 225.708 55.3851 228.778 55.3851H258.306C265.002 55.3851 267.876 63.8829 262.555 67.9477L238.073 86.6508C235.741 88.4317 234.768 91.4772 235.634 94.2801L244.842 124.076C246.854 130.587 239.32 135.842 233.904 131.705L210.749 114.016C208.241 112.1 204.759 112.1 202.251 114.016L179.096 131.705C173.68 135.842 166.146 130.587 168.158 124.076L177.366 94.28C178.232 91.4772 177.259 88.4317 174.927 86.6508L150.445 67.9477C145.124 63.8829 147.998 55.3851 154.694 55.3851H184.222C187.291 55.3851 190.003 53.3848 190.91 50.4518L199.812 21.6427Z" fill="#6E1CA0"/>
</svg>
