<svg width="1755" height="500" viewBox="0 0 1755 500" fill="none" xmlns="http://www.w3.org/2000/svg">
<path d="M673.049 300.348C671.199 302.517 668.838 304.686 665.967 306.855C663.096 308.961 659.778 310.875 656.014 312.598C651.803 314.576 647.113 316.107 641.945 317.191C636.841 318.34 631.386 318.914 625.58 318.914C620.348 318.914 615.436 318.276 610.842 317C606.312 315.66 602.165 313.81 598.4 311.449C594.636 309.025 591.255 306.09 588.256 302.645C585.257 299.135 582.737 295.212 580.695 290.873C578.335 286.152 576.548 280.92 575.336 275.178C574.188 269.372 573.613 263.183 573.613 256.611V238.236C573.613 231.92 574.188 225.986 575.336 220.436C576.484 214.821 578.111 209.653 580.217 204.932C582.258 200.657 584.651 196.797 587.395 193.352C590.138 189.906 593.232 186.908 596.678 184.355C600.506 181.548 604.717 179.411 609.311 177.943C613.968 176.476 618.945 175.742 624.24 175.742C631.769 175.742 638.404 176.731 644.146 178.709C649.952 180.687 654.865 183.526 658.885 187.227C662.904 190.991 666.062 195.553 668.359 200.912C670.72 206.271 672.219 212.269 672.857 218.904H648.549C648.038 215.395 647.241 212.269 646.156 209.525C645.135 206.718 643.764 204.357 642.041 202.443C640.127 200.338 637.734 198.775 634.863 197.754C632.056 196.669 628.674 196.127 624.719 196.127C622.23 196.127 619.87 196.542 617.637 197.371C615.467 198.137 613.49 199.253 611.703 200.721C609.47 202.507 607.492 204.804 605.77 207.611C604.047 210.419 602.643 213.641 601.559 217.277C600.602 220.212 599.868 223.434 599.357 226.943C598.911 230.452 598.688 234.153 598.688 238.045V256.611C598.751 261.333 599.102 265.735 599.74 269.818C600.378 273.838 601.303 277.475 602.516 280.729C603.345 282.962 604.334 285.035 605.482 286.949C606.631 288.863 607.939 290.554 609.406 292.021C611.576 294.127 614.064 295.754 616.871 296.902C619.742 297.987 622.964 298.561 626.537 298.625C628.706 298.689 630.876 298.561 633.045 298.242C635.214 297.923 637.288 297.445 639.266 296.807C641.18 296.232 642.902 295.531 644.434 294.701C645.965 293.808 647.177 292.819 648.07 291.734L648.166 265.225H624.049V246.18H672.857L673.049 300.348ZM746.166 318.914C738.318 318.914 731.173 317.638 724.729 315.086C718.348 312.47 712.861 308.897 708.268 304.367C703.674 299.901 700.133 294.637 697.645 288.576C695.156 282.451 693.912 275.88 693.912 268.861V265.033C693.912 256.994 695.156 249.721 697.645 243.213C700.197 236.641 703.706 230.995 708.172 226.273C712.638 221.616 717.87 218.011 723.867 215.459C729.928 212.843 736.436 211.535 743.391 211.535C750.855 211.535 757.459 212.779 763.201 215.268C769.007 217.756 773.92 221.233 777.939 225.699C781.895 230.165 784.894 235.557 786.936 241.873C788.977 248.126 789.998 255.016 789.998 262.545V273.072H718.891V273.455C719.72 277.794 720.837 281.367 722.24 284.174C723.708 286.981 725.654 289.501 728.078 291.734C730.63 294.031 733.533 295.818 736.787 297.094C740.105 298.37 743.742 299.008 747.697 299.008C753.12 299.008 758.288 297.955 763.201 295.85C768.114 293.744 772.133 290.682 775.26 286.662L787.988 299.773C784.607 304.686 779.279 309.12 772.006 313.076C764.796 316.968 756.183 318.914 746.166 318.914ZM743.199 231.633C740.073 231.633 737.17 232.175 734.49 233.26C731.874 234.344 729.577 235.939 727.6 238.045C725.558 240.15 723.835 242.671 722.432 245.605C721.092 248.54 720.103 251.858 719.465 255.559H765.594V253.645C765.594 250.773 765.051 247.966 763.967 245.223C762.946 242.479 761.51 240.118 759.66 238.141C757.746 236.163 755.417 234.6 752.674 233.451C749.994 232.239 746.836 231.633 743.199 231.633ZM861.967 188.184V213.449H900.727V231.824H861.967V278.814C861.967 282.643 862.413 285.833 863.307 288.385C864.2 290.873 865.444 292.851 867.039 294.318C868.698 295.913 870.676 297.03 872.973 297.668C875.27 298.306 877.79 298.625 880.533 298.625C882.511 298.625 884.553 298.529 886.658 298.338C888.827 298.083 890.901 297.796 892.879 297.477C894.793 297.221 896.579 296.934 898.238 296.615C899.961 296.296 901.396 295.977 902.545 295.658L905.129 312.789C903.342 313.81 901.237 314.703 898.812 315.469C896.452 316.234 893.9 316.872 891.156 317.383C888.413 317.893 885.542 318.276 882.543 318.531C879.608 318.85 876.673 319.01 873.738 319.01C868.315 319.01 863.339 318.276 858.809 316.809C854.342 315.341 850.514 313.044 847.324 309.918C844.07 306.855 841.55 302.932 839.764 298.146C838.041 293.361 837.18 287.587 837.18 280.824V231.824H812.775V213.449H837.18V188.184H861.967ZM1022.56 317H998.057V255.75H954.895V317H930.299V177.656H954.895V235.365H998.057V177.656H1022.56V317ZM1115.39 317C1114.75 315.724 1114.21 314.225 1113.76 312.502C1113.32 310.715 1112.96 308.865 1112.71 306.951C1111.18 308.61 1109.42 310.173 1107.45 311.641C1105.47 313.044 1103.3 314.288 1100.94 315.373C1098.51 316.458 1095.87 317.319 1092.99 317.957C1090.12 318.595 1087.06 318.914 1083.81 318.914C1078.45 318.914 1073.53 318.148 1069.07 316.617C1064.67 315.086 1060.9 312.949 1057.78 310.205C1054.59 307.462 1052.1 304.208 1050.31 300.443C1048.59 296.615 1047.73 292.5 1047.73 288.098C1047.73 282.355 1048.84 277.283 1051.08 272.881C1053.31 268.479 1056.63 264.842 1061.03 261.971C1065.05 259.291 1069.99 257.281 1075.86 255.941C1081.8 254.538 1088.53 253.836 1096.06 253.836H1111.85V247.328C1111.85 244.712 1111.43 242.383 1110.6 240.342C1109.77 238.3 1108.53 236.546 1106.87 235.078C1105.15 233.547 1103.01 232.367 1100.46 231.537C1097.97 230.708 1095.07 230.293 1091.75 230.293C1088.82 230.293 1086.23 230.644 1084 231.346C1081.83 232.048 1080.04 233.036 1078.64 234.312C1077.3 235.461 1076.31 236.865 1075.67 238.523C1075.03 240.118 1074.71 241.873 1074.71 243.787H1049.93C1049.93 239.512 1050.88 235.461 1052.8 231.633C1054.78 227.741 1057.62 224.296 1061.32 221.297C1065.02 218.298 1069.51 215.938 1074.81 214.215C1080.17 212.428 1086.26 211.535 1093.09 211.535C1099.28 211.535 1105.02 212.301 1110.32 213.832C1115.61 215.299 1120.24 217.533 1124.19 220.531C1128.02 223.53 1131.05 227.294 1133.29 231.824C1135.52 236.29 1136.63 241.522 1136.63 247.52V292.691C1136.63 297.796 1136.95 302.198 1137.59 305.898C1138.29 309.535 1139.31 312.693 1140.65 315.373V317H1115.39ZM1088.78 299.391C1091.65 299.391 1094.3 299.072 1096.73 298.434C1099.15 297.732 1101.35 296.807 1103.33 295.658C1105.31 294.574 1107 293.329 1108.4 291.926C1109.87 290.458 1111.02 288.991 1111.85 287.523V269.053H1097.68C1093.09 269.053 1089.17 269.467 1085.91 270.297C1082.66 271.126 1080.01 272.339 1077.97 273.934C1076.12 275.401 1074.71 277.156 1073.76 279.197C1072.86 281.239 1072.42 283.472 1072.42 285.896C1072.42 287.874 1072.77 289.725 1073.47 291.447C1074.17 293.106 1075.23 294.542 1076.63 295.754C1077.97 296.839 1079.66 297.732 1081.7 298.434C1083.74 299.072 1086.1 299.391 1088.78 299.391ZM1234.92 288.768C1234.92 287.045 1234.54 285.546 1233.77 284.27C1233.07 282.93 1231.76 281.686 1229.85 280.537C1227.94 279.452 1225.38 278.432 1222.19 277.475C1219.07 276.518 1215.11 275.592 1210.33 274.699C1204.26 273.487 1198.75 271.988 1193.77 270.201C1188.79 268.351 1184.55 266.15 1181.04 263.598C1177.47 261.109 1174.69 258.206 1172.71 254.889C1170.74 251.507 1169.75 247.615 1169.75 243.213C1169.75 238.938 1170.74 234.887 1172.71 231.059C1174.76 227.23 1177.66 223.881 1181.42 221.01C1185.19 218.075 1189.75 215.778 1195.11 214.119C1200.53 212.396 1206.59 211.535 1213.29 211.535C1220.31 211.535 1226.63 212.396 1232.24 214.119C1237.86 215.778 1242.61 218.075 1246.5 221.01C1250.39 224.008 1253.36 227.549 1255.4 231.633C1257.51 235.652 1258.56 240.023 1258.56 244.744H1233.87C1233.87 242.894 1233.52 241.171 1232.82 239.576C1232.11 237.917 1231.09 236.418 1229.75 235.078C1228.03 233.483 1225.8 232.207 1223.05 231.25C1220.31 230.293 1217.06 229.814 1213.29 229.814C1209.91 229.814 1206.94 230.165 1204.39 230.867C1201.9 231.505 1199.86 232.43 1198.27 233.643C1196.8 234.727 1195.65 236.003 1194.82 237.471C1194.06 238.938 1193.67 240.501 1193.67 242.16C1193.67 243.755 1193.99 245.255 1194.63 246.658C1195.33 247.998 1196.54 249.21 1198.27 250.295C1199.93 251.443 1202.19 252.464 1205.06 253.357C1207.93 254.251 1211.6 255.048 1216.07 255.75C1222.32 256.835 1228.1 258.206 1233.39 259.865C1238.69 261.46 1243.22 263.502 1246.98 265.99C1250.81 268.542 1253.78 271.573 1255.88 275.082C1257.99 278.591 1259.04 282.77 1259.04 287.619C1259.04 292.213 1257.95 296.424 1255.79 300.252C1253.62 304.08 1250.55 307.398 1246.6 310.205C1242.64 312.949 1237.82 315.118 1232.15 316.713C1226.53 318.244 1220.31 319.01 1213.48 319.01C1205.83 319.01 1199.07 318.021 1193.2 316.043C1187.33 314.001 1182.41 311.322 1178.46 308.004C1174.5 304.814 1171.47 301.145 1169.37 296.998C1167.32 292.851 1166.3 288.64 1166.3 284.365H1190.04C1190.29 287.364 1191.12 289.916 1192.53 292.021C1193.93 294.127 1195.72 295.818 1197.88 297.094C1200.12 298.434 1202.61 299.391 1205.35 299.965C1208.16 300.539 1211 300.826 1213.87 300.826C1217.63 300.826 1220.89 300.475 1223.63 299.773C1226.44 299.072 1228.7 298.115 1230.42 296.902C1231.89 295.818 1233.01 294.605 1233.77 293.266C1234.54 291.862 1234.92 290.363 1234.92 288.768ZM1332.83 188.184V213.449H1371.59V231.824H1332.83V278.814C1332.83 282.643 1333.27 285.833 1334.17 288.385C1335.06 290.873 1336.3 292.851 1337.9 294.318C1339.56 295.913 1341.54 297.03 1343.83 297.668C1346.13 298.306 1348.65 298.625 1351.39 298.625C1353.37 298.625 1355.41 298.529 1357.52 298.338C1359.69 298.083 1361.76 297.796 1363.74 297.477C1365.65 297.221 1367.44 296.934 1369.1 296.615C1370.82 296.296 1372.26 295.977 1373.4 295.658L1375.99 312.789C1374.2 313.81 1372.1 314.703 1369.67 315.469C1367.31 316.234 1364.76 316.872 1362.02 317.383C1359.27 317.893 1356.4 318.276 1353.4 318.531C1350.47 318.85 1347.53 319.01 1344.6 319.01C1339.17 319.01 1334.2 318.276 1329.67 316.809C1325.2 315.341 1321.37 313.044 1318.18 309.918C1314.93 306.855 1312.41 302.932 1310.62 298.146C1308.9 293.361 1308.04 287.587 1308.04 280.824V231.824H1283.63V213.449H1308.04V188.184H1332.83ZM1452.46 318.914C1444.61 318.914 1437.46 317.638 1431.02 315.086C1424.64 312.47 1419.15 308.897 1414.56 304.367C1409.96 299.901 1406.42 294.637 1403.93 288.576C1401.45 282.451 1400.2 275.88 1400.2 268.861V265.033C1400.2 256.994 1401.45 249.721 1403.93 243.213C1406.49 236.641 1409.99 230.995 1414.46 226.273C1418.93 221.616 1424.16 218.011 1430.16 215.459C1436.22 212.843 1442.73 211.535 1449.68 211.535C1457.14 211.535 1463.75 212.779 1469.49 215.268C1475.3 217.756 1480.21 221.233 1484.23 225.699C1488.18 230.165 1491.18 235.557 1493.22 241.873C1495.27 248.126 1496.29 255.016 1496.29 262.545V273.072H1425.18V273.455C1426.01 277.794 1427.13 281.367 1428.53 284.174C1430 286.981 1431.94 289.501 1434.37 291.734C1436.92 294.031 1439.82 295.818 1443.08 297.094C1446.39 298.37 1450.03 299.008 1453.99 299.008C1459.41 299.008 1464.58 297.955 1469.49 295.85C1474.4 293.744 1478.42 290.682 1481.55 286.662L1494.28 299.773C1490.9 304.686 1485.57 309.12 1478.29 313.076C1471.09 316.968 1462.47 318.914 1452.46 318.914ZM1449.49 231.633C1446.36 231.633 1443.46 232.175 1440.78 233.26C1438.16 234.344 1435.87 235.939 1433.89 238.045C1431.85 240.15 1430.12 242.671 1428.72 245.605C1427.38 248.54 1426.39 251.858 1425.75 255.559H1471.88V253.645C1471.88 250.773 1471.34 247.966 1470.26 245.223C1469.24 242.479 1467.8 240.118 1465.95 238.141C1464.04 236.163 1461.71 234.6 1458.96 233.451C1456.28 232.239 1453.12 231.633 1449.49 231.633ZM1525.86 170H1582.71V296.711H1613.24V317H1525.86V296.711H1557.73V190.385H1525.86V170ZM1653.24 358.822C1650.88 358.822 1648.71 358.663 1646.73 358.344C1644.82 358.025 1642.84 357.578 1640.8 357.004L1643.96 337.959C1645.17 337.959 1646.6 337.991 1648.26 338.055C1649.92 338.182 1651.23 338.246 1652.19 338.246C1654.36 338.246 1656.3 337.576 1658.03 336.236C1659.75 334.96 1661.22 333.525 1662.43 331.93C1663.7 330.335 1664.66 329.027 1665.3 328.006C1665.94 326.985 1666.64 325.773 1667.4 324.369L1673.72 312.502L1629.7 213.449H1656.88L1681.57 275.369L1684.82 286.375L1688.94 275.656L1713.25 213.449H1740.62L1688.08 332.6C1686.93 335.215 1685.43 338.055 1683.58 341.117C1681.73 344.18 1679.43 347.019 1676.69 349.635C1674.01 352.187 1670.72 354.356 1666.83 356.143C1663 357.929 1658.47 358.822 1653.24 358.822Z" fill="#62198F"/>
<mask id="mask0_1004_30" style="mask-type:alpha" maskUnits="userSpaceOnUse" x="0" y="0" width="500" height="500">
<rect x="21.2132" y="250" width="323.553" height="323.553" transform="rotate(-45 21.2132 250)" stroke="white" stroke-width="30"/>
<rect x="87.8833" y="249.312" width="228.294" height="228.294" transform="rotate(-45 87.8833 249.312)" fill="#FF0000"/>
</mask>
<g mask="url(#mask0_1004_30)">
<rect y="-1" width="225" height="500" fill="#62198F"/>
<rect x="275" y="-1" width="225" height="500" fill="#62198F"/>
</g>
</svg>
