<svg width="3364" height="925" viewBox="0 0 3364 925" fill="none" xmlns="http://www.w3.org/2000/svg">
<path d="M1268.63 249.031L1098.71 742H995.974L1210.04 173.25H1275.66L1268.63 249.031ZM1410.82 742L1240.51 249.031L1233.08 173.25H1299.1L1513.94 742H1410.82ZM1402.61 531.062V608.797H1093.24V531.062H1402.61ZM1826.05 654.5V142H1920.58V742H1835.04L1826.05 654.5ZM1551.05 535.359V527.156C1551.05 495.125 1554.83 465.958 1562.38 439.656C1569.93 413.094 1580.87 390.307 1595.19 371.297C1609.52 352.026 1626.96 337.312 1647.54 327.156C1668.11 316.74 1691.29 311.531 1717.07 311.531C1742.59 311.531 1764.98 316.479 1784.26 326.375C1803.53 336.271 1819.93 350.464 1833.47 368.953C1847.02 387.182 1857.82 409.057 1865.9 434.578C1873.97 459.839 1879.7 487.964 1883.08 518.953V545.125C1879.7 575.333 1873.97 602.938 1865.9 627.938C1857.82 652.938 1847.02 674.552 1833.47 692.781C1819.93 711.01 1803.4 725.073 1783.86 734.969C1764.59 744.865 1742.07 749.812 1716.29 749.812C1690.77 749.812 1667.72 744.474 1647.15 733.797C1626.83 723.12 1609.52 708.146 1595.19 688.875C1580.87 669.604 1569.93 646.948 1562.38 620.906C1554.83 594.604 1551.05 566.089 1551.05 535.359ZM1645.19 527.156V535.359C1645.19 554.63 1646.89 572.599 1650.27 589.266C1653.92 605.932 1659.52 620.646 1667.07 633.406C1674.62 645.906 1684.39 655.802 1696.36 663.094C1708.6 670.125 1723.19 673.641 1740.11 673.641C1761.47 673.641 1779.05 668.953 1792.85 659.578C1806.65 650.203 1817.46 637.573 1825.27 621.688C1833.34 605.542 1838.81 587.573 1841.68 567.781V497.078C1840.11 481.714 1836.86 467.391 1831.91 454.109C1827.22 440.828 1820.84 429.24 1812.77 419.344C1804.7 409.188 1794.67 401.375 1782.69 395.906C1770.97 390.177 1757.04 387.312 1740.9 387.312C1723.71 387.312 1709.13 390.958 1697.15 398.25C1685.17 405.542 1675.27 415.568 1667.46 428.328C1659.91 441.089 1654.31 455.932 1650.66 472.859C1647.02 489.786 1645.19 507.885 1645.19 527.156ZM2276.83 654.5V142H2371.36V742H2285.82L2276.83 654.5ZM2001.83 535.359V527.156C2001.83 495.125 2005.61 465.958 2013.16 439.656C2020.71 413.094 2031.65 390.307 2045.97 371.297C2060.3 352.026 2077.74 337.312 2098.32 327.156C2118.89 316.74 2142.07 311.531 2167.85 311.531C2193.37 311.531 2215.77 316.479 2235.04 326.375C2254.31 336.271 2270.71 350.464 2284.26 368.953C2297.8 387.182 2308.6 409.057 2316.68 434.578C2324.75 459.839 2330.48 487.964 2333.86 518.953V545.125C2330.48 575.333 2324.75 602.938 2316.68 627.938C2308.6 652.938 2297.8 674.552 2284.26 692.781C2270.71 711.01 2254.18 725.073 2234.65 734.969C2215.38 744.865 2192.85 749.812 2167.07 749.812C2141.55 749.812 2118.5 744.474 2097.93 733.797C2077.61 723.12 2060.3 708.146 2045.97 688.875C2031.65 669.604 2020.71 646.948 2013.16 620.906C2005.61 594.604 2001.83 566.089 2001.83 535.359ZM2095.97 527.156V535.359C2095.97 554.63 2097.67 572.599 2101.05 589.266C2104.7 605.932 2110.3 620.646 2117.85 633.406C2125.4 645.906 2135.17 655.802 2147.15 663.094C2159.39 670.125 2173.97 673.641 2190.9 673.641C2212.25 673.641 2229.83 668.953 2243.63 659.578C2257.43 650.203 2268.24 637.573 2276.05 621.688C2284.13 605.542 2289.59 587.573 2292.46 567.781V497.078C2290.9 481.714 2287.64 467.391 2282.69 454.109C2278.01 440.828 2271.63 429.24 2263.55 419.344C2255.48 409.188 2245.45 401.375 2233.47 395.906C2221.76 390.177 2207.82 387.312 2191.68 387.312C2174.49 387.312 2159.91 390.958 2147.93 398.25C2135.95 405.542 2126.05 415.568 2118.24 428.328C2110.69 441.089 2105.09 455.932 2101.44 472.859C2097.8 489.786 2095.97 507.885 2095.97 527.156ZM2656.13 749.812C2624.88 749.812 2596.63 744.734 2571.36 734.578C2546.36 724.161 2525.01 709.708 2507.3 691.219C2489.85 672.729 2476.44 650.984 2467.07 625.984C2457.69 600.984 2453.01 574.031 2453.01 545.125V529.5C2453.01 496.427 2457.82 466.479 2467.46 439.656C2477.09 412.833 2490.51 389.917 2507.69 370.906C2524.88 351.635 2545.19 336.922 2568.63 326.766C2592.07 316.609 2617.46 311.531 2644.8 311.531C2675.01 311.531 2701.44 316.609 2724.1 326.766C2746.76 336.922 2765.51 351.245 2780.35 369.734C2795.45 387.964 2806.65 409.708 2813.94 434.969C2821.49 460.229 2825.27 488.094 2825.27 518.562V558.797H2498.71V491.219H2732.3V483.797C2731.78 466.87 2728.4 450.984 2722.15 436.141C2716.16 421.297 2706.91 409.318 2694.41 400.203C2681.91 391.089 2665.24 386.531 2644.41 386.531C2628.79 386.531 2614.85 389.917 2602.61 396.688C2590.64 403.198 2580.61 412.703 2572.54 425.203C2564.46 437.703 2558.21 452.807 2553.79 470.516C2549.62 487.964 2547.54 507.625 2547.54 529.5V545.125C2547.54 563.615 2550.01 580.802 2554.96 596.688C2560.17 612.312 2567.72 625.984 2577.61 637.703C2587.51 649.422 2599.49 658.667 2613.55 665.438C2627.61 671.948 2643.63 675.203 2661.6 675.203C2684.26 675.203 2704.44 670.646 2722.15 661.531C2739.85 652.417 2755.22 639.526 2768.24 622.859L2817.85 670.906C2808.73 684.188 2796.89 696.948 2782.3 709.188C2767.72 721.167 2749.88 730.932 2728.79 738.484C2707.95 746.036 2683.73 749.812 2656.13 749.812ZM3156.52 654.5V142H3251.05V742H3165.51L3156.52 654.5ZM2881.52 535.359V527.156C2881.52 495.125 2885.3 465.958 2892.85 439.656C2900.4 413.094 2911.34 390.307 2925.66 371.297C2939.98 352.026 2957.43 337.312 2978.01 327.156C2998.58 316.74 3021.76 311.531 3047.54 311.531C3073.06 311.531 3095.45 316.479 3114.72 326.375C3133.99 336.271 3150.4 350.464 3163.94 368.953C3177.48 387.182 3188.29 409.057 3196.36 434.578C3204.44 459.839 3210.17 487.964 3213.55 518.953V545.125C3210.17 575.333 3204.44 602.938 3196.36 627.938C3188.29 652.938 3177.48 674.552 3163.94 692.781C3150.4 711.01 3133.86 725.073 3114.33 734.969C3095.06 744.865 3072.54 749.812 3046.76 749.812C3021.23 749.812 2998.19 744.474 2977.61 733.797C2957.3 723.12 2939.98 708.146 2925.66 688.875C2911.34 669.604 2900.4 646.948 2892.85 620.906C2885.3 594.604 2881.52 566.089 2881.52 535.359ZM2975.66 527.156V535.359C2975.66 554.63 2977.35 572.599 2980.74 589.266C2984.39 605.932 2989.98 620.646 2997.54 633.406C3005.09 645.906 3014.85 655.802 3026.83 663.094C3039.07 670.125 3053.66 673.641 3070.58 673.641C3091.94 673.641 3109.52 668.953 3123.32 659.578C3137.12 650.203 3147.93 637.573 3155.74 621.688C3163.81 605.542 3169.28 587.573 3172.15 567.781V497.078C3170.58 481.714 3167.33 467.391 3162.38 454.109C3157.69 440.828 3151.31 429.24 3143.24 419.344C3135.17 409.188 3125.14 401.375 3113.16 395.906C3101.44 390.177 3087.51 387.312 3071.36 387.312C3054.18 387.312 3039.59 390.958 3027.61 398.25C3015.64 405.542 3005.74 415.568 2997.93 428.328C2990.38 441.089 2984.78 455.932 2981.13 472.859C2977.48 489.786 2975.66 507.885 2975.66 527.156Z" fill="#62198F"/>
<path fill-rule="evenodd" clip-rule="evenodd" d="M85.3553 410.977C65.829 391.452 34.171 391.452 14.6447 410.977C-4.88156 430.503 -4.88156 462.163 14.6447 481.69L247.978 715.023C267.504 734.547 299.162 734.547 318.69 715.023L752.023 281.689C771.547 262.162 771.547 230.504 752.023 210.978C732.497 191.452 700.837 191.452 681.31 210.978L283.333 608.957L85.3553 410.977Z" fill="#62198F"/>
</svg>
